<?xml version="1.0" standalone="no"?>
<!DOCTYPE svg PUBLIC "-//W3C//DTD SVG 20010904//EN"
 "http://www.w3.org/TR/2001/REC-SVG-20010904/DTD/svg10.dtd">
<svg version="1.0" xmlns="http://www.w3.org/2000/svg"
 width="1200.000000pt" height="1200.000000pt" viewBox="0 0 1200.000000 1200.000000"
 preserveAspectRatio="xMidYMid meet">

<g transform="translate(0.000000,1200.000000) scale(0.100000,-0.100000)"
fill="#000000" stroke="none">
<path d="M7575 10120 c-412 -31 -796 -162 -1122 -381 -248 -167 -474 -412
-641 -696 -24 -40 -45 -73 -47 -73 -2 0 -18 21 -36 48 -127 187 -249 324 -394
441 -357 287 -746 422 -1215 422 -181 0 -245 -4 -390 -26 -459 -71 -952 -294
-1350 -611 -116 -92 -370 -348 -463 -465 -160 -202 -310 -460 -397 -678 -83
-209 -160 -517 -177 -708 -14 -153 -8 -525 11 -673 103 -807 459 -1612 1072
-2430 597 -795 1435 -1563 2249 -2062 349 -214 702 -374 942 -429 212 -47 438
-23 753 81 1015 334 2356 1391 3216 2537 402 535 710 1096 883 1608 155 461
214 784 214 1175 0 449 -84 836 -268 1241 -301 664 -861 1192 -1565 1477 -393
159 -862 233 -1275 202z m-2582 -1569 c274 -96 534 -484 621 -925 32 -160 40
-281 26 -404 -38 -351 -203 -539 -510 -582 -196 -28 -376 37 -531 189 -154
152 -257 363 -311 636 -18 89 -22 144 -22 285 0 194 16 290 72 432 117 303
396 460 655 369z m2077 -8 c178 -49 339 -160 430 -299 72 -110 102 -212 107
-369 5 -114 2 -144 -21 -245 -60 -266 -200 -521 -393 -716 -320 -323 -678
-385 -903 -155 -63 64 -108 150 -142 266 -21 72 -23 100 -23 285 0 179 3 219
23 310 96 429 307 763 562 889 120 60 229 70 360 34z m-3336 -1380 c285 -95
532 -434 631 -869 37 -159 46 -389 21 -515 -20 -100 -70 -211 -120 -266 -108
-120 -388 -177 -601 -123 -254 65 -470 266 -614 571 -153 325 -171 682 -46
930 125 248 442 366 729 272z m4748 -48 c158 -33 257 -104 312 -226 149 -328
-109 -942 -511 -1220 -145 -100 -271 -142 -428 -141 -190 1 -294 57 -368 200
-49 95 -62 158 -61 297 3 421 305 895 666 1047 135 57 257 70 390 43z m-2287
-690 c637 -96 1206 -673 1419 -1443 144 -517 79 -1030 -159 -1267 -116 -116
-216 -151 -401 -142 -142 6 -248 38 -429 127 -220 107 -397 158 -592 167 -103
5 -135 3 -215 -16 -95 -22 -108 -28 -478 -217 -234 -120 -360 -164 -481 -172
-291 -17 -482 205 -539 628 -19 140 -15 376 9 532 144 919 685 1617 1378 1777
179 42 330 50 488 26z"/>
</g>
</svg>
